<svg xmlns="http://www.w3.org/2000/svg" width="1000" height="225" viewBox="0 0 1000 225" role="img" aria-label="Top Languages">
    <rect width="1000" height="225" rx="8" fill="#ffffff"/>
    <rect x="0.5" y="0.5" width="999" height="224" rx="7.5" fill="none" stroke="#d1d9e0"/>
    <path d="M8 8h3v27H8z" fill="#0969da"/>
    <text x="24" y="31" fill="#1f2328" font-family="Segoe UI, Noto Sans, Arial, sans-serif" font-size="16" font-weight="700">Top Languages</text>
    <line x1="16" y1="46.5" x2="984" y2="46.5" stroke="#d8dee4"/>
  <text x="30" y="73" fill="#1f2328" font-family="Segoe UI, Noto Sans, Arial, sans-serif" font-size="14" font-weight="400" text-anchor="start">C#</text>
      <rect x="260" y="62" width="620" height="9" rx="4.5" fill="#eff2f5"/>
      <rect x="260" y="62" width="260.2" height="9" rx="4.5" fill="#0969da"/>
      <text x="950" y="73" fill="#59636e" font-family="Segoe UI, Noto Sans, Arial, sans-serif" font-size="13" font-weight="400" text-anchor="end">42.0%</text>
<text x="30" y="92" fill="#1f2328" font-family="Segoe UI, Noto Sans, Arial, sans-serif" font-size="14" font-weight="400" text-anchor="start">Lua</text>
      <rect x="260" y="81" width="620" height="9" rx="4.5" fill="#eff2f5"/>
      <rect x="260" y="81" width="182.3" height="9" rx="4.5" fill="#0969da"/>
      <text x="950" y="92" fill="#59636e" font-family="Segoe UI, Noto Sans, Arial, sans-serif" font-size="13" font-weight="400" text-anchor="end">29.4%</text>
<text x="30" y="111" fill="#1f2328" font-family="Segoe UI, Noto Sans, Arial, sans-serif" font-size="14" font-weight="400" text-anchor="start">C++</text>
      <rect x="260" y="100" width="620" height="9" rx="4.5" fill="#eff2f5"/>
      <rect x="260" y="100" width="100.1" height="9" rx="4.5" fill="#0969da"/>
      <text x="950" y="111" fill="#59636e" font-family="Segoe UI, Noto Sans, Arial, sans-serif" font-size="13" font-weight="400" text-anchor="end">16.1%</text>
<text x="30" y="130" fill="#1f2328" font-family="Segoe UI, Noto Sans, Arial, sans-serif" font-size="14" font-weight="400" text-anchor="start">Python</text>
      <rect x="260" y="119" width="620" height="9" rx="4.5" fill="#eff2f5"/>
      <rect x="260" y="119" width="30.6" height="9" rx="4.5" fill="#0969da"/>
      <text x="950" y="130" fill="#59636e" font-family="Segoe UI, Noto Sans, Arial, sans-serif" font-size="13" font-weight="400" text-anchor="end">4.9%</text>
<text x="30" y="149" fill="#1f2328" font-family="Segoe UI, Noto Sans, Arial, sans-serif" font-size="14" font-weight="400" text-anchor="start">C</text>
      <rect x="260" y="138" width="620" height="9" rx="4.5" fill="#eff2f5"/>
      <rect x="260" y="138" width="25.1" height="9" rx="4.5" fill="#0969da"/>
      <text x="950" y="149" fill="#59636e" font-family="Segoe UI, Noto Sans, Arial, sans-serif" font-size="13" font-weight="400" text-anchor="end">4.1%</text>
<text x="30" y="168" fill="#1f2328" font-family="Segoe UI, Noto Sans, Arial, sans-serif" font-size="14" font-weight="400" text-anchor="start">HTML</text>
      <rect x="260" y="157" width="620" height="9" rx="4.5" fill="#eff2f5"/>
      <rect x="260" y="157" width="6.8" height="9" rx="4.5" fill="#0969da"/>
      <text x="950" y="168" fill="#59636e" font-family="Segoe UI, Noto Sans, Arial, sans-serif" font-size="13" font-weight="400" text-anchor="end">1.1%</text>
<text x="30" y="187" fill="#1f2328" font-family="Segoe UI, Noto Sans, Arial, sans-serif" font-size="14" font-weight="400" text-anchor="start">ShaderLab</text>
      <rect x="260" y="176" width="620" height="9" rx="4.5" fill="#eff2f5"/>
      <rect x="260" y="176" width="4.0" height="9" rx="4.5" fill="#0969da"/>
      <text x="950" y="187" fill="#59636e" font-family="Segoe UI, Noto Sans, Arial, sans-serif" font-size="13" font-weight="400" text-anchor="end">0.6%</text>
<text x="30" y="206" fill="#1f2328" font-family="Segoe UI, Noto Sans, Arial, sans-serif" font-size="14" font-weight="400" text-anchor="start">PowerShell</text>
      <rect x="260" y="195" width="620" height="9" rx="4.5" fill="#eff2f5"/>
      <rect x="260" y="195" width="4.0" height="9" rx="4.5" fill="#0969da"/>
      <text x="950" y="206" fill="#59636e" font-family="Segoe UI, Noto Sans, Arial, sans-serif" font-size="13" font-weight="400" text-anchor="end">0.5%</text>
  </svg>
